<svg id="レイヤー_3" data-name="レイヤー 3" xmlns="http://www.w3.org/2000/svg" viewBox="0 0 960 592.5"><title>vi-mono</title><rect width="960" height="592.5" style="fill:none"/><path d="M458.59,215.13V79.4a1.83,1.83,0,0,1,1.83-1.83h50.47q16,0,25.62,4.23a33,33,0,0,1,15.12,13,34.34,34.34,0,0,1,5.47,18.4,31.61,31.61,0,0,1-4.85,16.83,32.88,32.88,0,0,1-11.12,10.8,1.82,1.82,0,0,0,.34,3.25A34.86,34.86,0,0,1,557,155.44a33.88,33.88,0,0,1,6.8,21.11,40.72,40.72,0,0,1-4.14,18.21,35.27,35.27,0,0,1-10.22,13,42.67,42.67,0,0,1-15.26,6.89A92.83,92.83,0,0,1,511.74,217H460.41A1.83,1.83,0,0,1,458.59,215.13ZM477,134.31a1.83,1.83,0,0,0,1.83,1.83h28.31q12.27,0,17.59-1.62,7-2.09,10.6-6.94a20,20,0,0,0,3.56-12.17,22.41,22.41,0,0,0-3.33-12.22A16.84,16.84,0,0,0,526.1,96Q519.91,94,504.89,94h-26A1.83,1.83,0,0,0,477,95.84v38.47Zm0,64.37a1.83,1.83,0,0,0,1.83,1.83h32.88a79.89,79.89,0,0,0,12.55-.67,30.08,30.08,0,0,0,10.65-3.8,20.19,20.19,0,0,0,7-7.75,24.25,24.25,0,0,0,2.76-11.74,23.17,23.17,0,0,0-4-13.55,21.07,21.07,0,0,0-11.08-8.08q-7.09-2.33-20.4-2.33H478.86a1.83,1.83,0,0,0-1.83,1.83v44.27Z" style="fill:#f5f6f6"/><path d="M580.67,166.47q0-28,15.59-41.55,13-11.22,31.76-11.22,20.82,0,34,13.64T675.28,165q0,19.49-5.85,30.66a41.4,41.4,0,0,1-17,17.35A49.55,49.55,0,0,1,628,219.24q-21.2,0-34.28-13.6T580.67,166.47Zm17.59,0q0,19.4,8.46,29a28.18,28.18,0,0,0,42.5,0q8.46-9.7,8.46-29.57,0-18.73-8.51-28.38a28.22,28.22,0,0,0-42.45,0Q598.26,147.07,598.26,166.47Z" style="fill:#f5f6f6"/><path d="M689,166.47q0-28,15.59-41.55,13-11.22,31.76-11.22,20.82,0,34,13.64T783.58,165q0,19.49-5.85,30.66a41.39,41.39,0,0,1-17,17.35,49.55,49.55,0,0,1-24.39,6.18q-21.2,0-34.28-13.6T689,166.47Zm17.59,0q0,19.4,8.46,29a28.17,28.17,0,0,0,42.5,0q8.46-9.7,8.46-29.57,0-18.73-8.51-28.38a28.22,28.22,0,0,0-42.45,0Q706.56,147.07,706.56,166.47Z" style="fill:#f5f6f6"/><path d="M841.29,203.4l1.9,11.63a1.83,1.83,0,0,1-1.47,2.09,60.58,60.58,0,0,1-11.17,1.17q-9.32,0-14.45-2.95a16.5,16.5,0,0,1-7.23-7.75q-2.09-4.8-2.09-20.21V131.12a1.83,1.83,0,0,0-1.83-1.83H796a1.83,1.83,0,0,1-1.83-1.83v-9.66A1.83,1.83,0,0,1,796,116h8.9a1.83,1.83,0,0,0,1.83-1.83V92a1.83,1.83,0,0,1,.88-1.56L821,82.38a1.83,1.83,0,0,1,2.77,1.56v30.21a1.83,1.83,0,0,0,1.83,1.83h13.56a1.83,1.83,0,0,1,1.83,1.83v9.66a1.83,1.83,0,0,1-1.83,1.83H825.62a1.83,1.83,0,0,0-1.83,1.83v57.22q0,7.32.9,9.41a7.12,7.12,0,0,0,2.95,3.33,11.37,11.37,0,0,0,5.85,1.24,48.25,48.25,0,0,0,5.76-.43A1.83,1.83,0,0,1,841.29,203.4Z" style="fill:#f5f6f6"/><path d="M486.94,315.25a1.83,1.83,0,0,0-2.18,1.79v37.4q0,12.85,2.81,16,3.81,4.42,11.54,4.42h3.39a1.83,1.83,0,0,1,1.83,1.83v0.06a1.83,1.83,0,0,1-1.83,1.83H447.85A1.83,1.83,0,0,1,446,376.7v-0.06a1.83,1.83,0,0,1,1.83-1.83h3.29q8.63,0,12.34-5.62,2-3.11,2-14.75V266.52q0-12.85-2.71-16-3.92-4.42-11.64-4.42h-3.29a1.83,1.83,0,0,1-1.83-1.83v-0.06a1.83,1.83,0,0,1,1.83-1.83H495.9q18.27,0,28.81,3.76a39.65,39.65,0,0,1,17.76,12.7,32.64,32.64,0,0,1,7.23,21.18q0,16.66-11,27.1T507.64,317.6a87.68,87.68,0,0,1-10.64-.7Q492.25,316.32,486.94,315.25Zm-2.18-7.7a1.83,1.83,0,0,0,1.51,1.8q4.4,0.8,7.93,1.23a59.1,59.1,0,0,0,7,.5q10.44,0,18-8.08t7.58-20.93a37.64,37.64,0,0,0-3.61-16.41A24.94,24.94,0,0,0,513,254.32a29.93,29.93,0,0,0-15.06-3.76,55.79,55.79,0,0,0-11.71,1.57,1.83,1.83,0,0,0-1.44,1.79v53.63Z" style="fill:#f5f6f6"/><path d="M590.24,285.71V298a1.83,1.83,0,0,0,3.35,1q9.94-15.12,20.33-15.12a12.88,12.88,0,0,1,9.13,3.36,10.34,10.34,0,0,1,3.61,7.78,9.19,9.19,0,0,1-2.61,6.62,8.35,8.35,0,0,1-6.22,2.71q-3.51,0-7.88-3.46t-6.47-3.46a6,6,0,0,0-3.91,2q-4.42,4-9.13,13.15a1.85,1.85,0,0,0-.21.85V357q0,7.63,1.91,11.54a10.39,10.39,0,0,0,4.62,4.52,18.12,18.12,0,0,0,7.77,1.77,1.83,1.83,0,0,1,1.76,1.82h0a1.83,1.83,0,0,1-1.83,1.83H561.05a1.83,1.83,0,0,1-1.83-1.83h0a1.83,1.83,0,0,1,1.76-1.82q5.7-.25,8.67-2.17a8.58,8.58,0,0,0,3.51-5.12q0.5-1.7.5-9.73V322.22q0-16.06-.65-19.12a7.49,7.49,0,0,0-2.41-4.47,6.76,6.76,0,0,0-4.36-1.4,17.86,17.86,0,0,0-5.27.89,1.82,1.82,0,0,1-2.28-1.26l0-.17a1.83,1.83,0,0,1,1.08-2.18l26-10.5a1.83,1.83,0,0,1,.68-0.13h2A1.83,1.83,0,0,1,590.24,285.71Z" style="fill:#f5f6f6"/><path d="M649.09,321.22a1.83,1.83,0,0,0-1.83,1.88q0.35,19.14,9.92,30.24,10,11.64,23.58,11.64a25.57,25.57,0,0,0,15.71-5q6.09-4.53,10.38-15a1.83,1.83,0,0,1,2.68-.85l0.23,0.15a1.82,1.82,0,0,1,.81,1.84,48.06,48.06,0,0,1-12,23.85,32.7,32.7,0,0,1-25.39,11.29q-16.56,0-28.35-12.9T633,333.76q0-23.58,12.09-36.78t30.36-13.2q15.46,0,25.39,10.19,9.38,9.61,9.9,25.35a1.83,1.83,0,0,1-1.83,1.9H649.09Zm0.22-5.82h38.54a1.83,1.83,0,0,0,1.82-2q-0.56-7.28-2-10.48a20,20,0,0,0-7.48-8.83,18.87,18.87,0,0,0-10.39-3.21q-8.33,0-14.9,6.47-6,5.88-7.43,15.93A1.83,1.83,0,0,0,649.31,315.4Z" style="fill:#f5f6f6"/><path d="M782.44,285.71v27.66a1.83,1.83,0,0,1-1.83,1.83h-0.08a1.83,1.83,0,0,1-1.76-1.36q-3.73-13.65-9.42-18.71-6-5.32-15.21-5.32-7,0-11.34,3.71t-4.31,8.23a14.93,14.93,0,0,0,3.21,9.63q3.11,4.12,12.64,8.73L769,327.24q20.37,9.93,20.37,26.19a24.74,24.74,0,0,1-9.48,20.22,32.88,32.88,0,0,1-21.23,7.68,73,73,0,0,1-19.27-3,19.63,19.63,0,0,0-5.42-1,3.68,3.68,0,0,0-3.15,1.81,1.89,1.89,0,0,1-1.57.8h-0.38A1.83,1.83,0,0,1,727,378.1V348.94a1.83,1.83,0,0,1,1.83-1.83h0a1.82,1.82,0,0,1,1.78,1.41q2.91,13,10.44,19.77a25.91,25.91,0,0,0,17.76,7.13,15.91,15.91,0,0,0,11.29-4.06,12.9,12.9,0,0,0,4.37-9.79,15.58,15.58,0,0,0-4.87-11.64q-4.87-4.72-19.42-11.94t-19.07-13q-4.52-5.72-4.52-14.45a25.49,25.49,0,0,1,7.78-19q7.78-7.63,20.12-7.63a47.3,47.3,0,0,1,13.15,2.31,31,31,0,0,0,6.82,1.5A4,4,0,0,0,777,287a7.36,7.36,0,0,0,1.6-2.15,1.84,1.84,0,0,1,1.61-1h0.38A1.83,1.83,0,0,1,782.44,285.71Z" style="fill:#f5f6f6"/><path d="M862.43,285.71v27.66a1.83,1.83,0,0,1-1.83,1.83h-0.08a1.83,1.83,0,0,1-1.76-1.36q-3.73-13.65-9.42-18.71-6-5.32-15.21-5.32-7,0-11.34,3.71t-4.32,8.23a14.93,14.93,0,0,0,3.21,9.63q3.11,4.12,12.64,8.73L849,327.24q20.37,9.93,20.37,26.19a24.75,24.75,0,0,1-9.48,20.22,32.88,32.88,0,0,1-21.23,7.68,73,73,0,0,1-19.27-3,19.62,19.62,0,0,0-5.42-1,3.68,3.68,0,0,0-3.15,1.81,1.89,1.89,0,0,1-1.57.8h-0.38A1.83,1.83,0,0,1,807,378.1V348.94a1.83,1.83,0,0,1,1.83-1.83h0a1.82,1.82,0,0,1,1.78,1.41q2.91,13,10.44,19.77a25.91,25.91,0,0,0,17.76,7.13,15.91,15.91,0,0,0,11.29-4.06,12.89,12.89,0,0,0,4.37-9.79,15.58,15.58,0,0,0-4.87-11.64q-4.87-4.72-19.42-11.94t-19.07-13q-4.52-5.72-4.52-14.45a25.49,25.49,0,0,1,7.78-19q7.78-7.63,20.12-7.63a47.3,47.3,0,0,1,13.15,2.31,31,31,0,0,0,6.82,1.5A4,4,0,0,0,857,287a7.36,7.36,0,0,0,1.6-2.15,1.84,1.84,0,0,1,1.61-1h0.38A1.83,1.83,0,0,1,862.43,285.71Z" style="fill:#f5f6f6"/><polygon points="256.74 510.53 356.77 510.53 306.59 335.65 256.74 510.53" style="fill:#f5f6f6"/><path d="M27.53,111v98.15H83.88a150.47,150.47,0,0,0,18.86-1,80.19,80.19,0,0,0,14.31-3.07q17-5.68,24.88-17.72t7.84-28.4q0-16.81-8.18-27.49t-25.68-15.9a106.8,106.8,0,0,0-20-3.52q-11.36-1-26.81-1H27.53Z" style="fill:#f5f6f6"/><path d="M124.36,83.06a107.69,107.69,0,0,1,25.72,10.57,76.65,76.65,0,0,1,19.65,16,68,68,0,0,1,12.46,21.13,73.33,73.33,0,0,1,4.38,25.67A86.05,86.05,0,0,1,184,177.81a60.49,60.49,0,0,1-8.41,18.86,62.84,62.84,0,0,1-15,15.45,82.59,82.59,0,0,1-22.38,11.36v0.91a96.18,96.18,0,0,1,11.8,2.5h81v7.74h-4q-8.92,0-13.64,5a17.08,17.08,0,0,0-4.71,12.13q0,7.32,7.41,33.68l45,159.19,37.89-135.34-6.73-23.85-5.39-19A113.83,113.83,0,0,0,278.8,248a23.65,23.65,0,0,0-5.39-6.69,28.84,28.84,0,0,0-8.42-5.44q-3.2-1.25-10.1-1.25v-7.74h88.92v7.74h-6.06q-9.43,0-13.81,5t-4.38,13.6q0,10.67,7.58,37.23l43.79,154.17,43.45-156.26q7.4-25.93,7.41-36a17.56,17.56,0,0,0-2.44-9,13.76,13.76,0,0,0-6.15-5.86q-6.4-2.93-16.67-2.93v-7.74h31.6V103.18a20.83,20.83,0,0,0-20.77-20.77H121.54C122.48,82.63,123.45,82.83,124.36,83.06Z" style="fill:#f5f6f6"/><path d="M101.83,346.74A112.26,112.26,0,0,0,125,342.08a62.42,62.42,0,0,0,17.72-8.75,49.37,49.37,0,0,0,11.7-11.81,44.37,44.37,0,0,0,6.36-13.75A57.4,57.4,0,0,0,162.72,293a62.48,62.48,0,0,0-2-16.25,38.36,38.36,0,0,0-6.7-13.63,43.47,43.47,0,0,0-12.27-10.56,63.72,63.72,0,0,0-19-7,104.75,104.75,0,0,0-15.56-2.27q-8.75-.68-21.7-0.68H27.53V348.21H72.29A274.48,274.48,0,0,0,101.83,346.74Z" style="fill:#f5f6f6"/><path d="M367.17,510.53h40.18a20.83,20.83,0,0,0,20.77-20.77V291.63Z" style="fill:#f5f6f6"/><path d="M193.25,324.12a81.3,81.3,0,0,1-7.32,13.76,88,88,0,0,1-19.1,20.33q-11.8,9.32-29.33,15.22a142.68,142.68,0,0,1-29.9,6.36,363.55,363.55,0,0,1-39.33,1.82H0V489.76a20.83,20.83,0,0,0,20.77,20.77H247Z" style="fill:#f5f6f6"/></svg>