<svg id="レイヤー_3" data-name="レイヤー 3" xmlns="http://www.w3.org/2000/svg" viewBox="0 0 960 592.5"><title>vi</title><rect width="960" height="592.5" style="fill:none"/><path d="M540.77,215.13V79.4a1.83,1.83,0,0,1,1.83-1.83h50.47q16,0,25.62,4.23a33,33,0,0,1,15.12,13,34.34,34.34,0,0,1,5.47,18.4A31.61,31.61,0,0,1,634.43,130a32.88,32.88,0,0,1-11.12,10.8,1.82,1.82,0,0,0,.34,3.25,34.86,34.86,0,0,1,15.58,11.34,33.88,33.88,0,0,1,6.8,21.11,40.72,40.72,0,0,1-4.14,18.21,35.27,35.27,0,0,1-10.22,13,42.67,42.67,0,0,1-15.26,6.89A92.83,92.83,0,0,1,593.92,217H542.59a1.83,1.83,0,0,1-1.82-1.84v0Zm18.45-80.82a1.83,1.83,0,0,0,1.83,1.83h28.31q12.27,0,17.59-1.62a19.71,19.71,0,0,0,10.6-6.94,20,20,0,0,0,3.56-12.17,22.41,22.41,0,0,0-3.33-12.22A16.84,16.84,0,0,0,608.27,96q-6.18-2-21.2-2H561a1.83,1.83,0,0,0-1.83,1.83h0V134.3h0.05Zm0,64.37a1.83,1.83,0,0,0,1.83,1.83h32.88a79.89,79.89,0,0,0,12.55-.67,30.08,30.08,0,0,0,10.65-3.8,20.19,20.19,0,0,0,7-7.75,24.25,24.25,0,0,0,2.76-11.74,23.17,23.17,0,0,0-4-13.55,21.07,21.07,0,0,0-11.08-8.08q-7.09-2.33-20.4-2.33H561a1.83,1.83,0,0,0-1.83,1.83h0v44.27h0.05Z" style="fill:#8d8e8e"/><path d="M662.85,166.47q0-28,15.59-41.55,13-11.22,31.76-11.22,20.82,0,34,13.64T757.46,165q0,19.49-5.85,30.66a41.4,41.4,0,0,1-17,17.35,49.55,49.55,0,0,1-24.39,6.18q-21.2,0-34.28-13.6T662.85,166.47Zm17.59,0q0,19.4,8.46,29a28.18,28.18,0,0,0,42.5,0q8.46-9.7,8.46-29.57,0-18.73-8.51-28.38a28.22,28.22,0,0,0-42.45,0Q680.44,147.07,680.44,166.47Z" style="fill:#8d8e8e"/><path d="M771.15,166.47q0-28,15.59-41.55,13-11.22,31.76-11.22,20.82,0,34,13.64T865.75,165q0,19.49-5.85,30.66a41.39,41.39,0,0,1-17,17.35,49.55,49.55,0,0,1-24.39,6.18q-21.2,0-34.28-13.6T771.15,166.47Zm17.59,0q0,19.4,8.46,29a28.17,28.17,0,0,0,42.5,0q8.46-9.7,8.46-29.57,0-18.73-8.51-28.38a28.22,28.22,0,0,0-42.45,0q-8.46,9.55-8.46,29h0Z" style="fill:#8d8e8e"/><path d="M923.47,203.4l1.9,11.63a1.83,1.83,0,0,1-1.47,2.09,60.58,60.58,0,0,1-11.17,1.17q-9.32,0-14.45-2.95a16.5,16.5,0,0,1-7.23-7.75q-2.09-4.8-2.09-20.21V131.12a1.83,1.83,0,0,0-1.83-1.83h-8.9a1.83,1.83,0,0,1-1.83-1.83h0V117.8a1.83,1.83,0,0,1,1.83-1.83h8.9a1.83,1.83,0,0,0,1.83-1.83h0V92a1.83,1.83,0,0,1,.88-1.56l13.37-8.06A1.83,1.83,0,0,1,906,83.94v30.21a1.83,1.83,0,0,0,1.8,1.85h13.56a1.83,1.83,0,0,1,1.83,1.83h0v9.66a1.83,1.83,0,0,1-1.83,1.83H907.8a1.83,1.83,0,0,0-1.83,1.83h0v57.22q0,7.32.9,9.41a7.12,7.12,0,0,0,3,3.33,11.37,11.37,0,0,0,5.85,1.24,48.25,48.25,0,0,0,5.76-.43A1.83,1.83,0,0,1,923.47,203.4Z" style="fill:#8d8e8e"/><path d="M569.12,315.25a1.83,1.83,0,0,0-2.18,1.79v37.4q0,12.85,2.81,16,3.81,4.42,11.54,4.42h3.39a1.83,1.83,0,0,1,1.83,1.83h0v0.06a1.83,1.83,0,0,1-1.83,1.83H530a1.83,1.83,0,0,1-1.83-1.83h0v-0.06a1.83,1.83,0,0,1,1.83-1.83h3.29q8.63,0,12.34-5.62,2-3.11,2-14.75v-88q0-12.85-2.71-16-3.92-4.42-11.64-4.42H530a1.83,1.83,0,0,1-1.83-1.83h0v-0.06a1.83,1.83,0,0,1,1.83-1.83h48q18.27,0,28.81,3.76a39.65,39.65,0,0,1,17.76,12.7A32.64,32.64,0,0,1,631.85,280q0,16.66-11,27.1t-31,10.48a87.68,87.68,0,0,1-10.64-.7Q574.43,316.32,569.12,315.25Zm-2.18-7.7a1.83,1.83,0,0,0,1.51,1.8q4.4,0.8,7.93,1.23a59.1,59.1,0,0,0,7,.5,23.83,23.83,0,0,0,18-8.08q7.56-8.08,7.62-20.93a37.64,37.64,0,0,0-3.61-16.41,24.94,24.94,0,0,0-10.24-11.34,29.93,29.93,0,0,0-15.06-3.76,55.79,55.79,0,0,0-11.71,1.57,1.83,1.83,0,0,0-1.44,1.79v53.63h0Z" style="fill:#8d8e8e"/><path d="M672.42,285.71V298a1.83,1.83,0,0,0,3.35,1q9.94-15.12,20.33-15.12a12.88,12.88,0,0,1,9.13,3.36,10.34,10.34,0,0,1,3.61,7.78,9.19,9.19,0,0,1-2.61,6.62,8.35,8.35,0,0,1-6.22,2.71q-3.51,0-7.88-3.46t-6.47-3.46a6,6,0,0,0-3.91,2q-4.42,4-9.13,13.15a1.85,1.85,0,0,0-.21.85V357q0,7.63,1.91,11.54a10.39,10.39,0,0,0,4.62,4.52,18.12,18.12,0,0,0,7.77,1.77,1.83,1.83,0,0,1,1.76,1.82h0a1.83,1.83,0,0,1-1.83,1.83H643.23a1.83,1.83,0,0,1-1.83-1.83h0a1.83,1.83,0,0,1,1.76-1.82q5.7-.25,8.67-2.17a8.58,8.58,0,0,0,3.51-5.12q0.5-1.7.5-9.73V322.22q0-16.06-.65-19.12a7.49,7.49,0,0,0-2.41-4.47,6.76,6.76,0,0,0-4.36-1.4,17.86,17.86,0,0,0-5.27.89,1.82,1.82,0,0,1-2.27-1.22v-0.21a1.83,1.83,0,0,1,1.08-2.18l26-10.5a1.83,1.83,0,0,1,.68-0.13h2A1.83,1.83,0,0,1,672.42,285.71Z" style="fill:#8d8e8e"/><path d="M731.27,321.22a1.83,1.83,0,0,0-1.83,1.83v0.05q0.35,19.14,9.92,30.24Q749.4,365,763,365a25.57,25.57,0,0,0,15.71-5q6.09-4.53,10.38-15a1.83,1.83,0,0,1,2.68-.85L792,344.3a1.82,1.82,0,0,1,.81,1.84,48.06,48.06,0,0,1-12,23.85,32.7,32.7,0,0,1-25.39,11.29q-16.56,0-28.35-12.9T715.23,333.7q0-23.58,12.09-36.78t30.36-13.2q15.46,0,25.39,10.19,9.38,9.61,9.9,25.35a1.83,1.83,0,0,1-1.76,1.9H731.27v0.06Zm0.22-5.82H770a1.83,1.83,0,0,0,1.83-1.83q0-.08,0-0.17-0.56-7.28-2-10.48a20,20,0,0,0-7.48-8.83A18.87,18.87,0,0,0,752,290.91q-8.33,0-14.9,6.47-6,5.88-7.43,15.93a1.83,1.83,0,0,0,1.55,2.07Z" style="fill:#8d8e8e"/><path d="M864.62,285.71v27.66a1.83,1.83,0,0,1-1.83,1.83h-0.08a1.83,1.83,0,0,1-1.76-1.36q-3.73-13.65-9.42-18.71-6-5.32-15.21-5.32-7,0-11.34,3.71t-4.31,8.23a14.93,14.93,0,0,0,3.21,9.63q3.11,4.12,12.64,8.73l14.65,7.13q20.37,9.93,20.37,26.19a24.74,24.74,0,0,1-9.48,20.22,32.88,32.88,0,0,1-21.23,7.68,73,73,0,0,1-19.27-3,19.63,19.63,0,0,0-5.42-1,3.68,3.68,0,0,0-3.15,1.81,1.89,1.89,0,0,1-1.57.8H811a1.83,1.83,0,0,1-1.83-1.83h0V348.94a1.83,1.83,0,0,1,1.83-1.83h0a1.82,1.82,0,0,1,1.78,1.41q2.91,13,10.44,19.77A25.91,25.91,0,0,0,841,375.41a15.91,15.91,0,0,0,11.29-4.06,12.9,12.9,0,0,0,4.37-9.79,15.58,15.58,0,0,0-4.87-11.64Q847,345.2,832.4,338t-19.07-13q-4.52-5.72-4.52-14.45a25.49,25.49,0,0,1,7.78-19q7.78-7.63,20.12-7.63a47.3,47.3,0,0,1,13.15,2.31,31,31,0,0,0,6.82,1.5,4,4,0,0,0,2.51-.7,7.36,7.36,0,0,0,1.6-2.15,1.84,1.84,0,0,1,1.61-1h0.38a1.83,1.83,0,0,1,1.84,1.82h0Z" style="fill:#8d8e8e"/><path d="M944.61,285.71v27.66a1.83,1.83,0,0,1-1.83,1.83H942.7a1.83,1.83,0,0,1-1.76-1.36q-3.73-13.65-9.42-18.71-6-5.32-15.21-5.32-7,0-11.34,3.71t-4.32,8.23a14.93,14.93,0,0,0,3.21,9.63q3.11,4.12,12.64,8.73l14.65,7.13q20.37,9.93,20.37,26.19A24.75,24.75,0,0,1,942,373.66a32.88,32.88,0,0,1-21.23,7.68,73,73,0,0,1-19.27-3,19.62,19.62,0,0,0-5.42-1,3.68,3.68,0,0,0-3.15,1.81,1.89,1.89,0,0,1-1.57.8H891a1.83,1.83,0,0,1-1.83-1.83h0V348.94a1.83,1.83,0,0,1,1.83-1.83h0a1.82,1.82,0,0,1,1.78,1.41q2.91,13,10.44,19.77A25.91,25.91,0,0,0,921,375.41a15.91,15.91,0,0,0,11.29-4.06,12.89,12.89,0,0,0,4.37-9.79,15.58,15.58,0,0,0-4.87-11.64q-4.87-4.72-19.42-11.94T893.3,325q-4.52-5.72-4.52-14.45a25.49,25.49,0,0,1,7.78-19q7.78-7.63,20.12-7.63a47.3,47.3,0,0,1,13.15,2.31,31,31,0,0,0,6.82,1.5,4,4,0,0,0,2.51-.7,7.36,7.36,0,0,0,1.6-2.15,1.84,1.84,0,0,1,1.61-1h0.38a1.83,1.83,0,0,1,1.86,1.8S944.61,285.69,944.61,285.71Z" style="fill:#8d8e8e"/><polygon points="338.92 510.53 438.95 510.53 388.77 335.65 338.92 510.53" style="fill:#8d8e8e"/><path d="M109.71,111v98.15h56.35a150.47,150.47,0,0,0,18.86-1,80.19,80.19,0,0,0,14.31-3.07q17-5.68,24.88-17.72t7.84-28.4q0-16.81-8.18-27.49t-25.68-15.9a106.8,106.8,0,0,0-20-3.52q-11.36-1-26.81-1H109.71v0Z" style="fill:#8d8e8e"/><path d="M206.54,83.06a107.69,107.69,0,0,1,25.72,10.57,76.65,76.65,0,0,1,19.65,16,68,68,0,0,1,12.46,21.13,73.33,73.33,0,0,1,4.38,25.67,86.05,86.05,0,0,1-2.61,21.36,60.49,60.49,0,0,1-8.41,18.86,62.84,62.84,0,0,1-15,15.45,82.59,82.59,0,0,1-22.38,11.36v0.91a96.18,96.18,0,0,1,11.8,2.5h81v7.74h-4q-8.92,0-13.64,5a17.08,17.08,0,0,0-4.71,12.13q0,7.32,7.41,33.68l45,159.19L381,309.29l-6.73-23.85-5.39-19A113.83,113.83,0,0,0,361,248a23.65,23.65,0,0,0-5.39-6.69,28.84,28.84,0,0,0-8.42-5.44q-3.2-1.25-10.1-1.25v-7.74H426v7.74h-6.06q-9.43,0-13.81,5t-4.38,13.6q0,10.67,7.58,37.23L453.1,444.63l43.45-156.26q7.4-25.93,7.41-36a17.56,17.56,0,0,0-2.44-9,13.76,13.76,0,0,0-6.15-5.86q-6.4-2.93-16.67-2.93v-7.74h31.6V103.18a20.83,20.83,0,0,0-20.77-20.77H203.72C204.66,82.63,205.63,82.83,206.54,83.06Z" style="fill:#8d8e8e"/><path d="M184,346.74a112.26,112.26,0,0,0,23.18-4.66,62.42,62.42,0,0,0,17.72-8.75,49.37,49.37,0,0,0,11.7-11.81,44.37,44.37,0,0,0,6.4-13.75A57.4,57.4,0,0,0,244.9,293a62.48,62.48,0,0,0-2-16.25,38.36,38.36,0,0,0-6.7-13.63,43.47,43.47,0,0,0-12.27-10.56,63.72,63.72,0,0,0-19-7,104.75,104.75,0,0,0-15.56-2.27q-8.75-.68-21.7-0.68h-58v105.6h44.76A274.48,274.48,0,0,0,184,346.74Z" style="fill:#8d8e8e"/><path d="M449.35,510.53h40.18a20.83,20.83,0,0,0,20.77-20.77V291.63Z" style="fill:#8d8e8e"/><path d="M275.43,324.12a81.3,81.3,0,0,1-7.32,13.76A88,88,0,0,1,249,358.21q-11.8,9.32-29.33,15.22a142.68,142.68,0,0,1-29.9,6.36,363.55,363.55,0,0,1-39.33,1.82H82.18V489.76a20.83,20.83,0,0,0,20.77,20.77H329.14Z" style="fill:#8d8e8e"/></svg>